<?xml version="1.0" encoding="utf-8"?>
<!-- Generator: Adobe Illustrator 25.2.1, SVG Export Plug-In . SVG Version: 6.00 Build 0)  -->
<svg version="1.1" id="Layer_1" xmlns="http://www.w3.org/2000/svg" xmlns:xlink="http://www.w3.org/1999/xlink" x="0px" y="0px"
	 viewBox="0 0 347 77" style="enable-background:new 0 0 347 77;" xml:space="preserve">
<style type="text/css">
	.st0{fill-rule:evenodd;clip-rule:evenodd;}
	.st1{fill:#ED1C24;}
	.st2{fill:#FFF200;}
</style>
<g>
	<path d="M38.5,48.8c-0.4-0.4-0.8-0.7-1.3-0.9c-0.5-0.2-1-0.3-1.5-0.3c-0.4,0-0.9,0.1-1.3,0.2c-0.4,0.2-0.8,0.4-1.1,0.7
		c-0.6,0.6-1,1.4-1,2.3c0,0.7,0.2,1.3,0.6,1.8c0.3,0.4,0.7,0.8,1.2,1c0.5,0.2,1,0.4,1.6,0.4c1.1,0,2-0.4,2.7-1.2V54
		c-0.4,0.3-0.9,0.5-1.3,0.6c-0.5,0.1-1,0.2-1.5,0.2c-0.9,0-1.7-0.2-2.5-0.7c-0.6-0.4-1.1-0.9-1.4-1.4c-0.3-0.6-0.5-1.2-0.5-1.9
		c0-1.2,0.4-2.1,1.3-2.9c0.8-0.7,1.9-1.1,3.1-1.1c0.5,0,1,0.1,1.4,0.2c0.4,0.1,0.9,0.3,1.3,0.6V48.8L38.5,48.8z M45.3,52.3
		c0,0.3,0.1,0.5,0.2,0.7c0.1,0.2,0.2,0.4,0.4,0.6c0.2,0.2,0.4,0.3,0.6,0.4c0.2,0.1,0.5,0.1,0.7,0.1c0.3,0,0.5,0,0.7-0.1
		c0.2-0.1,0.4-0.2,0.6-0.4c0.2-0.2,0.3-0.4,0.4-0.6c0.1-0.2,0.1-0.5,0.1-0.7c0-0.3,0-0.5-0.1-0.7c-0.1-0.2-0.2-0.4-0.4-0.6
		c-0.2-0.2-0.4-0.3-0.6-0.4c-0.2-0.1-0.5-0.1-0.7-0.1c-0.3,0-0.5,0-0.7,0.1c-0.2,0.1-0.4,0.2-0.6,0.4c-0.2,0.2-0.3,0.4-0.4,0.6
		C45.3,51.8,45.3,52,45.3,52.3L45.3,52.3z M44.3,52.3c0-0.3,0.1-0.7,0.2-1c0.1-0.3,0.3-0.6,0.6-0.8c0.3-0.2,0.6-0.4,0.9-0.6
		c0.3-0.1,0.7-0.2,1.1-0.2c0.4,0,0.8,0.1,1.1,0.2c0.3,0.1,0.6,0.3,0.9,0.6c0.3,0.2,0.5,0.5,0.6,0.8c0.1,0.3,0.2,0.6,0.2,1
		c0,0.7-0.3,1.3-0.8,1.8c-0.3,0.2-0.6,0.4-0.9,0.6c-0.3,0.1-0.7,0.2-1.1,0.2c-0.8,0-1.5-0.3-2-0.8C44.6,53.6,44.3,53,44.3,52.3
		L44.3,52.3z M63.3,51.9c0-0.5-0.1-0.8-0.3-1.1c-0.2-0.2-0.5-0.4-1-0.4c-0.5,0-0.9,0.2-1.2,0.5c-0.1,0.1-0.2,0.3-0.2,0.4
		c0,0.2-0.1,0.3-0.1,0.5c0,0,0,0.1,0,0.1c0,0,0,0.1,0,0.2v2.5h-0.9v-2.8c0-0.5-0.1-0.8-0.3-1.1c-0.2-0.2-0.5-0.4-1-0.4
		c-0.2,0-0.5,0-0.7,0.1c-0.2,0.1-0.4,0.2-0.5,0.4c-0.1,0.1-0.2,0.3-0.2,0.4c0,0.1-0.1,0.3-0.1,0.5c0,0.1,0,0.1,0,0.2
		c0,0.1,0,0.1,0,0.2v2.5h-0.9v-4.8H57v0.7c0.4-0.6,1-0.9,1.8-0.9c0.4,0,0.8,0.1,1.1,0.2c0.3,0.2,0.5,0.4,0.7,0.7
		c0.4-0.6,1.1-1,1.9-1c0.6,0,1,0.1,1.4,0.4c0.3,0.3,0.5,0.7,0.5,1.3v3.3h-0.9V51.9L63.3,51.9z M71.5,52.3c0,0.5,0.2,1,0.5,1.3
		c0.3,0.3,0.8,0.5,1.3,0.5c0.5,0,0.9-0.1,1.2-0.4c0.3-0.3,0.5-0.7,0.5-1.2c0-0.6-0.2-1.1-0.5-1.4c-0.3-0.3-0.7-0.5-1.2-0.5
		c-0.5,0-1,0.2-1.3,0.5C71.7,51.3,71.5,51.7,71.5,52.3L71.5,52.3z M70.6,49.9h0.9v0.9c0.2-0.3,0.5-0.6,0.8-0.8
		c0.3-0.2,0.7-0.3,1.1-0.3c0.4,0,0.7,0.1,1,0.2c0.3,0.1,0.6,0.3,0.8,0.5c0.2,0.2,0.4,0.5,0.5,0.8c0.1,0.3,0.2,0.7,0.2,1.1
		c0,0.4-0.1,0.8-0.2,1.1c-0.1,0.3-0.3,0.6-0.5,0.8c-0.2,0.2-0.5,0.4-0.8,0.5c-0.3,0.1-0.6,0.2-1,0.2c-0.9,0-1.5-0.4-1.9-1.1V57h-0.9
		V49.9L70.6,49.9z M82,49.9h0.8v1c0.2-0.4,0.5-0.7,0.8-0.9c0.3-0.2,0.6-0.3,1-0.3c0.2,0,0.4,0,0.6,0.1l-0.3,0.7
		c-0.2-0.1-0.4-0.1-0.5-0.1c-0.9,0-1.4,0.6-1.4,1.9v2.3H82V49.9L82,49.9z M94.4,51.7c0-0.4-0.2-0.8-0.5-1c-0.3-0.2-0.7-0.3-1.1-0.3
		c-0.4,0-0.8,0.1-1.1,0.4c-0.3,0.2-0.5,0.6-0.5,1H94.4L94.4,51.7z M91.3,52.4L91.3,52.4c0,0.3,0,0.6,0.1,0.8
		c0.1,0.2,0.2,0.4,0.4,0.5c0.2,0.1,0.3,0.3,0.5,0.3c0.2,0.1,0.4,0.1,0.7,0.1c0.7,0,1.3-0.3,1.7-1l0.7,0.4c-0.5,0.9-1.3,1.3-2.4,1.3
		c-0.4,0-0.8-0.1-1.1-0.2c-0.3-0.1-0.6-0.3-0.8-0.5c-0.2-0.2-0.4-0.5-0.5-0.8c-0.1-0.3-0.2-0.7-0.2-1.1c0-0.4,0.1-0.7,0.2-1
		c0.1-0.3,0.3-0.6,0.5-0.8c0.2-0.2,0.5-0.4,0.8-0.5c0.3-0.1,0.7-0.2,1.1-0.2c0.8,0,1.4,0.2,1.8,0.7c0.5,0.4,0.7,1.1,0.7,1.9v0.2
		H91.3L91.3,52.4z M101.4,46.6h0.9v4.1c0.4-0.6,1.1-0.9,1.9-0.9c0.6,0,1.1,0.1,1.4,0.4c0.4,0.3,0.5,0.7,0.5,1.3v3.3h-0.9v-2.8
		c0-1-0.5-1.4-1.4-1.4c-0.5,0-1,0.2-1.3,0.5c-0.2,0.2-0.2,0.4-0.3,0.6c0,0.2,0,0.4,0,0.7v2.5h-0.9V46.6L101.4,46.6z M116.3,51.7
		c0-0.4-0.2-0.8-0.5-1c-0.3-0.2-0.7-0.3-1.1-0.3c-0.4,0-0.8,0.1-1.1,0.4c-0.3,0.2-0.5,0.6-0.5,1H116.3L116.3,51.7z M113.1,52.4
		L113.1,52.4c0,0.3,0,0.6,0.1,0.8c0.1,0.2,0.2,0.4,0.4,0.5c0.2,0.1,0.3,0.3,0.5,0.3c0.2,0.1,0.4,0.1,0.7,0.1c0.7,0,1.3-0.3,1.7-1
		l0.7,0.4c-0.5,0.9-1.3,1.3-2.4,1.3c-0.4,0-0.8-0.1-1.1-0.2c-0.3-0.1-0.6-0.3-0.8-0.5c-0.2-0.2-0.4-0.5-0.5-0.8
		c-0.1-0.3-0.2-0.7-0.2-1.1c0-0.4,0.1-0.7,0.2-1c0.1-0.3,0.3-0.6,0.5-0.8c0.2-0.2,0.5-0.4,0.8-0.5c0.3-0.1,0.7-0.2,1.1-0.2
		c0.8,0,1.4,0.2,1.8,0.7c0.5,0.4,0.7,1.1,0.7,1.9v0.2H113.1L113.1,52.4z M123.2,49.9h0.9v0.7c0.4-0.6,1.1-0.9,1.9-0.9
		c0.6,0,1.1,0.1,1.4,0.4c0.4,0.3,0.5,0.7,0.5,1.3v3.3h-0.9v-2.8c0-1-0.5-1.4-1.4-1.4c-0.5,0-1,0.2-1.3,0.5c-0.2,0.2-0.2,0.4-0.3,0.6
		c0,0.2,0,0.4,0,0.7v2.5h-0.9V49.9L123.2,49.9z M134.6,53.4c0.3,0.5,0.7,0.8,1.3,0.8c0.3,0,0.5-0.1,0.7-0.2c0.2-0.1,0.3-0.3,0.3-0.5
		c0-0.2-0.1-0.3-0.2-0.4c-0.1-0.1-0.3-0.2-0.6-0.3c-0.3-0.1-0.6-0.2-0.9-0.3c-0.3-0.1-0.5-0.2-0.6-0.3c-0.2-0.1-0.3-0.2-0.4-0.4
		c-0.1-0.2-0.1-0.3-0.1-0.6c0-0.4,0.2-0.8,0.5-1c0.3-0.3,0.8-0.4,1.3-0.4c0.5,0,0.8,0.1,1.2,0.2c0.3,0.2,0.6,0.4,0.7,0.7l-0.7,0.4
		c-0.1-0.2-0.3-0.4-0.5-0.5c-0.2-0.1-0.4-0.2-0.7-0.2c-0.3,0-0.5,0.1-0.6,0.2c-0.2,0.1-0.2,0.3-0.2,0.5c0,0.1,0,0.2,0.1,0.3
		c0.1,0.1,0.1,0.1,0.3,0.2c0.1,0.1,0.3,0.1,0.4,0.2c0.2,0,0.4,0.1,0.6,0.2c0.5,0.1,0.9,0.3,1.1,0.5c0.2,0.2,0.4,0.5,0.4,0.9
		c0,0.4-0.2,0.8-0.5,1.1c-0.3,0.3-0.8,0.4-1.4,0.4c-1,0-1.7-0.3-2.1-1L134.6,53.4L134.6,53.4z M143.6,47.6c0-0.2,0.1-0.3,0.2-0.4
		c0.1-0.1,0.3-0.2,0.5-0.2c0.2,0,0.3,0.1,0.5,0.2c0.1,0.1,0.2,0.3,0.2,0.4c0,0.2-0.1,0.3-0.2,0.4c-0.1,0.1-0.3,0.2-0.5,0.2
		c-0.2,0-0.3-0.1-0.5-0.2C143.7,47.9,143.6,47.8,143.6,47.6L143.6,47.6z M143.9,49.9h0.9v4.8h-0.9V49.9L143.9,49.9z M150.4,49.9h1
		l1.6,3.3l1.6-3.3h1L153,55L150.4,49.9L150.4,49.9z M164.9,51.7c0-0.4-0.2-0.8-0.5-1c-0.3-0.2-0.7-0.3-1.1-0.3
		c-0.4,0-0.8,0.1-1.1,0.4c-0.3,0.2-0.5,0.6-0.5,1H164.9L164.9,51.7z M161.7,52.4L161.7,52.4c0,0.3,0,0.6,0.1,0.8
		c0.1,0.2,0.2,0.4,0.4,0.5c0.2,0.1,0.3,0.3,0.5,0.3c0.2,0.1,0.4,0.1,0.7,0.1c0.7,0,1.3-0.3,1.7-1l0.7,0.4c-0.5,0.9-1.3,1.3-2.4,1.3
		c-0.4,0-0.8-0.1-1.1-0.2c-0.3-0.1-0.6-0.3-0.8-0.5c-0.2-0.2-0.4-0.5-0.5-0.8c-0.1-0.3-0.2-0.7-0.2-1.1c0-0.4,0.1-0.7,0.2-1
		c0.1-0.3,0.3-0.6,0.5-0.8c0.2-0.2,0.5-0.4,0.8-0.5c0.3-0.1,0.7-0.2,1.1-0.2c0.8,0,1.4,0.2,1.8,0.7c0.5,0.4,0.7,1.1,0.7,1.9v0.2
		H161.7L161.7,52.4z M186.8,48.8c-0.4-0.4-0.8-0.7-1.3-0.9c-0.5-0.2-1-0.3-1.5-0.3c-0.4,0-0.9,0.1-1.3,0.2c-0.4,0.2-0.8,0.4-1.1,0.7
		c-0.6,0.6-1,1.4-1,2.3c0,0.7,0.2,1.3,0.6,1.8c0.3,0.4,0.7,0.8,1.2,1c0.5,0.2,1,0.4,1.6,0.4c1.1,0,2-0.4,2.7-1.2V54
		c-0.4,0.3-0.9,0.5-1.3,0.6c-0.5,0.1-1,0.2-1.5,0.2c-0.9,0-1.7-0.2-2.5-0.7c-0.6-0.4-1.1-0.9-1.4-1.4c-0.3-0.6-0.5-1.2-0.5-1.9
		c0-1.2,0.4-2.1,1.3-2.9c0.8-0.7,1.9-1.1,3.1-1.1c0.5,0,1,0.1,1.4,0.2c0.4,0.1,0.9,0.3,1.3,0.6V48.8L186.8,48.8z M193.6,52.3
		c0,0.3,0.1,0.5,0.2,0.7c0.1,0.2,0.2,0.4,0.4,0.6c0.2,0.2,0.4,0.3,0.6,0.4c0.2,0.1,0.5,0.1,0.7,0.1c0.3,0,0.5,0,0.7-0.1
		c0.2-0.1,0.4-0.2,0.6-0.4c0.2-0.2,0.3-0.4,0.4-0.6c0.1-0.2,0.1-0.5,0.1-0.7c0-0.3,0-0.5-0.1-0.7c-0.1-0.2-0.2-0.4-0.4-0.6
		c-0.2-0.2-0.4-0.3-0.6-0.4c-0.2-0.1-0.5-0.1-0.7-0.1c-0.3,0-0.5,0-0.7,0.1c-0.2,0.1-0.4,0.2-0.6,0.4c-0.2,0.2-0.3,0.4-0.4,0.6
		C193.7,51.8,193.6,52,193.6,52.3L193.6,52.3z M192.7,52.3c0-0.3,0.1-0.7,0.2-1c0.1-0.3,0.3-0.6,0.6-0.8c0.3-0.2,0.6-0.4,0.9-0.6
		c0.3-0.1,0.7-0.2,1.1-0.2c0.4,0,0.8,0.1,1.1,0.2c0.3,0.1,0.6,0.3,0.9,0.6c0.3,0.2,0.5,0.5,0.6,0.8c0.1,0.3,0.2,0.6,0.2,1
		c0,0.7-0.3,1.3-0.8,1.8c-0.3,0.2-0.6,0.4-0.9,0.6c-0.3,0.1-0.7,0.2-1.1,0.2c-0.8,0-1.5-0.3-2-0.8C192.9,53.6,192.7,53,192.7,52.3
		L192.7,52.3z M211.7,51.9c0-0.5-0.1-0.8-0.3-1.1c-0.2-0.2-0.5-0.4-1-0.4c-0.5,0-0.9,0.2-1.2,0.5c-0.1,0.1-0.2,0.3-0.2,0.4
		c0,0.2-0.1,0.3-0.1,0.5c0,0,0,0.1,0,0.1c0,0,0,0.1,0,0.2v2.5H208v-2.8c0-0.5-0.1-0.8-0.3-1.1c-0.2-0.2-0.5-0.4-1-0.4
		c-0.2,0-0.5,0-0.7,0.1c-0.2,0.1-0.4,0.2-0.5,0.4c-0.1,0.1-0.2,0.3-0.2,0.4c0,0.1-0.1,0.3-0.1,0.5c0,0.1,0,0.1,0,0.2
		c0,0.1,0,0.1,0,0.2v2.5h-0.9v-4.8h0.9v0.7c0.4-0.6,1-0.9,1.8-0.9c0.4,0,0.8,0.1,1.1,0.2c0.3,0.2,0.5,0.4,0.7,0.7
		c0.4-0.6,1.1-1,1.9-1c0.6,0,1,0.1,1.4,0.4c0.3,0.3,0.5,0.7,0.5,1.3v3.3h-0.9V51.9L211.7,51.9z M226.2,51.9c0-0.5-0.1-0.8-0.3-1.1
		c-0.2-0.2-0.5-0.4-1-0.4c-0.5,0-0.9,0.2-1.2,0.5c-0.1,0.1-0.2,0.3-0.2,0.4c0,0.2-0.1,0.3-0.1,0.5c0,0,0,0.1,0,0.1c0,0,0,0.1,0,0.2
		v2.5h-0.9v-2.8c0-0.5-0.1-0.8-0.3-1.1c-0.2-0.2-0.5-0.4-1-0.4c-0.2,0-0.5,0-0.7,0.1c-0.2,0.1-0.4,0.2-0.5,0.4
		c-0.1,0.1-0.2,0.3-0.2,0.4c0,0.1-0.1,0.3-0.1,0.5c0,0.1,0,0.1,0,0.2c0,0.1,0,0.1,0,0.2v2.5H219v-4.8h0.9v0.7c0.4-0.6,1-0.9,1.8-0.9
		c0.4,0,0.8,0.1,1.1,0.2c0.3,0.2,0.5,0.4,0.7,0.7c0.4-0.6,1.1-1,1.9-1c0.6,0,1,0.1,1.4,0.4c0.3,0.3,0.5,0.7,0.5,1.3v3.3h-0.9V51.9
		L226.2,51.9z M234.4,52.2c0,0.3,0,0.6,0.1,0.8c0,0.2,0.1,0.4,0.2,0.6c0.1,0.2,0.3,0.3,0.5,0.3c0.2,0.1,0.4,0.1,0.7,0.1
		c0.3,0,0.5,0,0.7-0.1c0.2-0.1,0.3-0.2,0.4-0.3c0.1-0.2,0.2-0.3,0.2-0.6c0-0.2,0.1-0.5,0.1-0.8v-2.4h0.9v2.8c0,0.7-0.2,1.3-0.6,1.6
		c-0.4,0.4-1,0.6-1.8,0.6c-0.8,0-1.3-0.2-1.7-0.5c-0.4-0.4-0.6-0.9-0.6-1.6v-2.9h0.9V52.2L234.4,52.2z M244.6,49.9h0.9v0.7
		c0.4-0.6,1.1-0.9,1.9-0.9c0.6,0,1.1,0.1,1.4,0.4c0.4,0.3,0.5,0.7,0.5,1.3v3.3h-0.9v-2.8c0-1-0.5-1.4-1.4-1.4c-0.5,0-1,0.2-1.3,0.5
		c-0.2,0.2-0.2,0.4-0.3,0.6c0,0.2,0,0.4,0,0.7v2.5h-0.9V49.9L244.6,49.9z M255.6,47.6c0-0.2,0.1-0.3,0.2-0.4
		c0.1-0.1,0.3-0.2,0.5-0.2s0.3,0.1,0.5,0.2c0.1,0.1,0.2,0.3,0.2,0.4c0,0.2-0.1,0.3-0.2,0.4c-0.1,0.1-0.3,0.2-0.5,0.2
		s-0.3-0.1-0.5-0.2C255.7,47.9,255.6,47.8,255.6,47.6L255.6,47.6z M255.8,49.9h0.9v4.8h-0.9V49.9L255.8,49.9z M267.2,54.5
		c-0.5,0.3-1.1,0.4-1.8,0.4c-0.4,0-0.8-0.1-1.1-0.2c-0.3-0.1-0.6-0.3-0.8-0.5c-0.2-0.2-0.4-0.5-0.5-0.8c-0.1-0.3-0.2-0.7-0.2-1
		c0-0.4,0.1-0.7,0.2-1.1s0.3-0.6,0.6-0.8c0.2-0.2,0.5-0.4,0.9-0.5c0.3-0.1,0.7-0.2,1.1-0.2c0.6,0,1.1,0.1,1.6,0.3v0.9
		c-0.5-0.3-0.9-0.4-1.4-0.4c-0.6,0-1,0.2-1.4,0.5c-0.4,0.3-0.5,0.8-0.5,1.3c0,0.2,0,0.5,0.1,0.7c0.1,0.2,0.2,0.4,0.4,0.6
		c0.2,0.2,0.4,0.3,0.6,0.4c0.2,0.1,0.5,0.1,0.8,0.1c0.3,0,0.6,0,0.8-0.1c0.3-0.1,0.5-0.2,0.8-0.4V54.5L267.2,54.5z M277.1,52.3
		c0-0.3,0-0.5-0.1-0.7c-0.1-0.2-0.2-0.4-0.4-0.6c-0.2-0.2-0.3-0.3-0.6-0.4c-0.2-0.1-0.4-0.1-0.7-0.1c-0.5,0-1,0.1-1.3,0.4
		c-0.3,0.3-0.5,0.7-0.5,1.3c0,0.6,0.2,1,0.5,1.3c0.3,0.3,0.7,0.5,1.3,0.5c0.5,0,0.9-0.1,1.3-0.4C277,53.3,277.1,52.9,277.1,52.3
		L277.1,52.3z M278,54.7h-0.9v-0.9c-0.2,0.3-0.5,0.6-0.8,0.8c-0.3,0.2-0.7,0.3-1.1,0.3c-0.4,0-0.7-0.1-1-0.2
		c-0.3-0.1-0.6-0.3-0.8-0.5c-0.2-0.2-0.4-0.5-0.5-0.8c-0.1-0.3-0.2-0.7-0.2-1.1c0-0.4,0.1-0.8,0.2-1.1c0.1-0.3,0.3-0.6,0.5-0.8
		c0.2-0.2,0.5-0.4,0.8-0.5c0.3-0.1,0.6-0.2,1-0.2c0.9,0,1.5,0.4,1.9,1.1v-0.9h0.9V54.7L278,54.7z M283.6,50.6v-0.7h1V48h0.9v1.9h1
		v0.7h-1v4.1h-0.9v-4.1H283.6L283.6,50.6z M292,47.6c0-0.2,0.1-0.3,0.2-0.4c0.1-0.1,0.3-0.2,0.5-0.2c0.2,0,0.3,0.1,0.5,0.2
		c0.1,0.1,0.2,0.3,0.2,0.4c0,0.2-0.1,0.3-0.2,0.4c-0.1,0.1-0.3,0.2-0.5,0.2c-0.2,0-0.3-0.1-0.5-0.2C292,47.9,292,47.8,292,47.6
		L292,47.6z M292.2,49.9h0.9v4.8h-0.9V49.9L292.2,49.9z M300.1,52.3c0,0.3,0.1,0.5,0.2,0.7c0.1,0.2,0.2,0.4,0.4,0.6
		c0.2,0.2,0.4,0.3,0.6,0.4c0.2,0.1,0.5,0.1,0.7,0.1c0.3,0,0.5,0,0.7-0.1c0.2-0.1,0.4-0.2,0.6-0.4c0.2-0.2,0.3-0.4,0.4-0.6
		c0.1-0.2,0.1-0.5,0.1-0.7c0-0.3,0-0.5-0.1-0.7c-0.1-0.2-0.2-0.4-0.4-0.6c-0.2-0.2-0.4-0.3-0.6-0.4c-0.2-0.1-0.5-0.1-0.7-0.1
		c-0.3,0-0.5,0-0.7,0.1c-0.2,0.1-0.4,0.2-0.6,0.4s-0.3,0.4-0.4,0.6C300.2,51.8,300.1,52,300.1,52.3L300.1,52.3z M299.2,52.3
		c0-0.3,0.1-0.7,0.2-1c0.1-0.3,0.3-0.6,0.6-0.8c0.3-0.2,0.6-0.4,0.9-0.6c0.3-0.1,0.7-0.2,1.1-0.2c0.4,0,0.8,0.1,1.1,0.2
		c0.3,0.1,0.6,0.3,0.9,0.6c0.3,0.2,0.5,0.5,0.6,0.8c0.1,0.3,0.2,0.6,0.2,1c0,0.7-0.3,1.3-0.8,1.8c-0.3,0.2-0.6,0.4-0.9,0.6
		c-0.3,0.1-0.7,0.2-1.1,0.2c-0.8,0-1.5-0.3-2-0.8C299.5,53.6,299.2,53,299.2,52.3L299.2,52.3z M310.9,49.9h0.9v0.7
		c0.4-0.6,1.1-0.9,1.9-0.9c0.6,0,1.1,0.1,1.4,0.4c0.4,0.3,0.5,0.7,0.5,1.3v3.3h-0.9v-2.8c0-1-0.5-1.4-1.4-1.4c-0.5,0-1,0.2-1.3,0.5
		c-0.2,0.2-0.2,0.4-0.3,0.6c0,0.2,0,0.4,0,0.7v2.5h-0.9V49.9L310.9,49.9z"/>
	<path class="st0" d="M94.7,24.1l0-2.1l-1,0l0-0.3l2.3,0l0,0.3l-1,0l0,2.1L94.7,24.1L94.7,24.1z M96.5,24.1l0-2.4l0.6,0l0.7,1.7
		c0.1,0.2,0.1,0.3,0.1,0.4c0-0.1,0.1-0.2,0.2-0.4l0.7-1.7l0.5,0l0,2.4l-0.4,0l0-2l-0.9,2l-0.3,0l-0.8-2l0,2L96.5,24.1L96.5,24.1z"/>
	<polygon class="st1" points="105.4,21.7 113.2,21.7 113.2,30.1 121.4,21.7 131.8,21.7 122.6,30.1 132.2,43.9 122.6,43.9 
		117.3,34.8 113.2,38.5 113.2,43.9 105.4,43.9 105.4,21.7 	"/>
	<polygon class="st1" points="52,21.7 59.3,21.7 68.8,34 68.8,21.7 76.2,21.7 76.2,43.9 68.8,43.9 59.3,31.7 59.3,43.9 52,43.9 
		52,21.7 	"/>
	<path class="st1" d="M32.8,32.8c0,2.2,0.5,3.7,1.4,4.7c0.9,0.9,2.2,1.4,3.7,1.4c1.6,0,2.9-0.5,3.8-1.4c0.9-0.9,1.3-2.6,1.3-5
		c0-2-0.5-3.5-1.4-4.4c-0.9-0.9-2.2-1.4-3.8-1.4c-1.5,0-2.7,0.5-3.7,1.4C33.3,29.1,32.8,30.7,32.8,32.8L32.8,32.8z M25.2,32.8
		c0-3.5,1.1-6.2,3.3-8.2c2.2-2,5.3-2.9,9.3-2.9c4.1,0,7.2,1,9.4,2.9c2.2,1.9,3.3,4.6,3.3,8c0,2.5-0.5,4.6-1.4,6.2
		c-1,1.6-2.4,2.8-4.2,3.7c-1.8,0.9-4.1,1.3-6.8,1.3c-2.8,0-5-0.4-6.9-1.2c-1.8-0.8-3.3-2-4.4-3.7C25.8,37.4,25.2,35.3,25.2,32.8
		L25.2,32.8z"/>
	<path class="st1" d="M9.5,30.7h3.3c0.4,0,1-0.1,2.1-0.3c0.5-0.1,0.9-0.3,1.3-0.7c0.3-0.4,0.5-0.8,0.5-1.3c0-0.7-0.3-1.3-0.8-1.6
		c-0.5-0.4-1.5-0.6-2.9-0.6H9.5V30.7L9.5,30.7z M1.7,43.9V21.7h13c2.4,0,4.3,0.2,5.5,0.5c1.3,0.4,2.3,1,3.1,2c0.8,1,1.2,2.2,1.2,3.6
		c0,1.2-0.3,2.3-0.9,3.2c-0.6,0.9-1.4,1.6-2.5,2.2c-0.7,0.4-1.6,0.6-2.7,0.9c0.9,0.3,1.6,0.5,2,0.8c0.3,0.2,0.7,0.6,1.2,1.2
		c0.5,0.6,0.9,1.1,1.1,1.4l3.8,6.4h-8.8l-4.2-6.8c-0.5-0.9-1-1.4-1.4-1.7c-0.6-0.3-1.2-0.5-1.9-0.5H9.5v9H1.7L1.7,43.9z"/>
	<polygon class="st0" points="90.7,20 104.4,43.9 77.1,43.9 90.7,20 	"/>
	<path class="st2" d="M92.6,32.7h2.3v11.2h-2.2h0h0v0c-2,0-3.8-0.5-5.4-1.5c-1.3-0.8-2.4-1.8-3.1-3c-0.7-1.2-1.1-2.5-1.1-3.9
		c0-2.5,1-4.5,2.9-6.1c1.9-1.6,4.1-2.4,6.8-2.4c0.7,0,1.4,0.1,2.1,0.2l0,1.8c-0.7-0.2-1.4-0.2-2.1-0.2c-1,0-1.9,0.2-2.8,0.5
		c-0.9,0.3-1.7,0.8-2.4,1.4c-1.4,1.3-2.1,2.9-2.1,4.7c0,1.5,0.4,2.7,1.3,3.8c0.7,0.9,1.6,1.6,2.7,2.1c1,0.5,2.1,0.7,3.3,0.7V32.7
		L92.6,32.7z"/>
	<path class="st1" d="M156.2,39.9h-6.7l-0.9,3.5h-6l7.2-21.1h6.4l7.2,21.1h-6.2L156.2,39.9L156.2,39.9z M155,35.3l-2.1-7.6l-2.1,7.6
		H155L155,35.3z M165.3,22.2h8.7c1.7,0,3.1,0.3,4.2,0.8c1.1,0.5,1.9,1.3,2.6,2.2c0.7,1,1.2,2.1,1.5,3.4c0.3,1.3,0.5,2.6,0.5,4.1
		c0,2.3-0.2,4-0.7,5.3c-0.5,1.2-1.1,2.3-1.9,3.1c-0.8,0.8-1.7,1.4-2.6,1.7c-1.3,0.4-2.5,0.6-3.5,0.6h-8.7V22.2L165.3,22.2z
		 M171.1,27v11.5h1.4c1.2,0,2.1-0.1,2.6-0.5c0.5-0.3,0.9-0.8,1.2-1.6c0.3-0.8,0.4-2,0.4-3.7c0-2.2-0.3-3.8-1-4.6
		c-0.7-0.8-1.8-1.2-3.3-1.2H171.1L171.1,27z M183.1,22.2h6.2l4.3,15.2l4.2-15.2h6l-7.1,21.1h-6.4L183.1,22.2L183.1,22.2z
		 M205.7,22.2h15.8v4.5h-9.9v3.4h9.2v4.3h-9.2v4.2h10.2v4.8h-16.1V22.2L205.7,22.2z M225,43.4V22.2h9.8c1.8,0,3.2,0.2,4.2,0.5
		c1,0.3,1.7,1,2.3,1.9c0.6,0.9,0.9,2.1,0.9,3.4c0,1.2-0.2,2.2-0.7,3c-0.5,0.9-1.1,1.5-1.9,2.1c-0.5,0.3-1.2,0.6-2.1,0.8
		c0.7,0.3,1.2,0.5,1.5,0.8c0.2,0.2,0.5,0.5,0.9,1.1c0.4,0.6,0.7,1,0.8,1.3l2.8,6.1H237l-3.1-6.5c-0.4-0.8-0.8-1.4-1.1-1.6
		c-0.4-0.3-0.9-0.5-1.4-0.5h-0.5v8.6H225L225,43.4z M230.9,30.8h2.5c0.3,0,0.8-0.1,1.6-0.3c0.4-0.1,0.7-0.3,1-0.7
		c0.2-0.4,0.4-0.8,0.4-1.2c0-0.7-0.2-1.2-0.6-1.6c-0.4-0.4-1.1-0.6-2.2-0.6h-2.6V30.8L230.9,30.8z M244,22.2h17.9v5.2h-6v15.9H250
		V27.5h-6V22.2L244,22.2z M264.8,22.2h5.9v21.1h-5.9V22.2L264.8,22.2z M273.9,36.4l5.6-0.4c0.1,1,0.4,1.8,0.7,2.3
		c0.6,0.9,1.5,1.3,2.6,1.3c0.8,0,1.5-0.2,1.9-0.7c0.5-0.4,0.7-0.9,0.7-1.5c0-0.5-0.2-1-0.6-1.5c-0.4-0.4-1.4-0.8-3-1.2
		c-2.6-0.6-4.4-1.5-5.5-2.6c-1.1-1.1-1.7-2.4-1.7-4.1c0-1.1,0.3-2.1,0.9-3.1c0.6-1,1.4-1.7,2.6-2.3c1.1-0.6,2.7-0.8,4.7-0.8
		c2.4,0,4.3,0.5,5.6,1.5c1.3,1,2,2.6,2.3,4.8l-5.5,0.4c-0.1-0.9-0.5-1.6-0.9-2.1c-0.5-0.4-1.1-0.6-2-0.6c-0.7,0-1.2,0.2-1.5,0.5
		c-0.3,0.3-0.5,0.7-0.5,1.2c0,0.3,0.1,0.6,0.4,0.9c0.3,0.3,0.9,0.5,2,0.8c2.6,0.6,4.4,1.2,5.5,1.9c1.1,0.6,1.9,1.4,2.4,2.3
		c0.5,0.9,0.8,2,0.8,3.1c0,1.4-0.3,2.6-1,3.7c-0.7,1.1-1.6,2-2.8,2.6c-1.2,0.6-2.7,0.9-4.6,0.9c-3.2,0-5.5-0.7-6.7-2.1
		C274.8,40.3,274.1,38.5,273.9,36.4L273.9,36.4z M294.4,22.2h5.9v21.1h-5.9V22.2L294.4,22.2z M304.5,22.2h5.5l7.2,11.7V22.2h5.5
		v21.1h-5.5l-7.1-11.6v11.6h-5.5V22.2L304.5,22.2z M336.2,35.7v-4.4h9.1v9c-1.7,1.3-3.3,2.2-4.6,2.7c-1.3,0.5-2.9,0.7-4.8,0.7
		c-2.3,0-4.1-0.4-5.5-1.3c-1.4-0.9-2.5-2.1-3.3-3.8c-0.8-1.7-1.2-3.6-1.2-5.8c0-2.3,0.4-4.3,1.3-6c0.9-1.7,2.1-3,3.8-3.9
		c1.3-0.7,3-1,5.2-1c2.1,0,3.7,0.2,4.7,0.6c1,0.4,1.9,1.1,2.6,2c0.7,0.9,1.2,2,1.6,3.4l-5.7,1.1c-0.2-0.8-0.6-1.4-1.2-1.8
		c-0.6-0.4-1.3-0.6-2.1-0.6c-1.3,0-2.3,0.5-3.1,1.5c-0.8,1-1.2,2.6-1.2,4.7c0,2.3,0.4,3.9,1.2,4.9c0.8,1,1.9,1.5,3.2,1.5
		c0.7,0,1.3-0.1,1.9-0.3c0.6-0.2,1.3-0.6,2.1-1.1v-2H336.2L336.2,35.7z"/>
</g>
</svg>
